# xmcd CD database file
#
# Track frame offsets:
#	150
#	35815
#	51409
#	68717
#	96489
#	136282
#	150719
#	171408
#
# Disc length: 2498 seconds
#
# Revision: 0
# Processed by: cddbd v1.5.2PL0 Copyright (c) Steve Scherf et al.
# Submitted via: CDex 1.70beta2
#
DISCID=7509c008
DTITLE=ELVIS DELUXE - THE STORY SO FAR
DYEAR=2013
DGENRE=Stoner
TTITLE0=YOURGODFREED
TTITLE1=NO REASON
TTITLE2=DARK LOVER
TTITLE3=FACE IT
TTITLE4=SOMETHING TO HIDE
TTITLE5=OUT OF LIFE
TTITLE6=THE HOPE
TTITLE7=SEARCH AND DESTROY
EXTD=YEAR: 2013
EXTT0=
EXTT1=
EXTT2=
EXTT3=
EXTT4=
EXTT5=
EXTT6=
EXTT7=
PLAYORDER=
